<svg xmlns="http://www.w3.org/2000/svg" width="490" height="490"><rect id="backgroundrect" width="100%" height="100%" x="0" y="0" fill="none" stroke="none"/><g class="currentLayer" style=""><title>Layer 1</title><circle cx="158.80799865722656" cy="191.78900146484375" r="14.446000099182129" id="svg_1"/><path d="M449.228 91.881c-18.694 0-34.436 12.584-39.249 29.74h-18.343c-6.092 0-11.03 4.938-11.03 11.029 0 6.094 4.938 11.031 11.03 11.031h18.343c4.813 17.156 20.555 29.74 39.249 29.74 22.517 0 40.772-18.252 40.772-40.771 0-22.515-18.255-40.769-40.772-40.769zm.596 94.791c-10.619 0-20.052 5.064-26.027 12.904-3.183 3.711-14.34 15.705-28.986 20.158-15.983 4.859-32.241-3.533-32.323-3.576-6.941-3.764-15.609-1.188-19.372 5.748-3.76 6.938-.862 15.066 5.75 19.371 13.889 9.039 41.815 9.578 54.258 5.797 5.011-1.523 9.69-3.568 13.992-5.881v69.73c0 10.506 4.957 19.846 12.653 25.83v127.914c0 11.076 8.979 20.055 20.056 20.055 11.077 0 20.057-8.979 20.057-20.055V336.754c7.696-5.984 12.652-15.326 12.652-25.83v-91.543c-.001-18.065-14.644-32.709-32.71-32.709z" id="svg_2" class="selected" fill="#388e3c" fill-opacity="1"/><path d="M354.974 204.584c11.248 0 15.301 6.238 26.073 6.238 6.088 0 13.171-2.184 13.171-5.445v-23.178c0-8.082-6.576-14.658-14.658-14.658h-42.08v19.133a2.506 2.506 0 0 1-2.507 2.506H322.96a2.506 2.506 0 0 1-2.508-2.506v-19.133h-42.079c-8.082 0-14.658 6.576-14.658 14.658v101.188c0 8.082 6.576 14.658 14.658 14.658H379.56c8.082 0 14.658-6.576 14.658-14.658v-20.158a2.51 2.51 0 0 0-.862-1.893c-.547-.475-1.271-.648-1.992-.59-47.621 3.824-69.433-21.543-58.5-43.002 4.192-8.228 12.875-13.16 22.11-13.16zm-98.893 143.637h-20.308V20.318c0-8.307-6.735-15.041-15.043-15.041H45.377c-8.307 0-15.041 6.734-15.041 15.041V348.22H10.027C4.489 348.221 0 352.709 0 358.248v35.514c0 5.539 4.489 10.027 10.027 10.027h246.054c5.538 0 10.028-4.488 10.028-10.027v-35.514c0-5.539-4.49-10.027-10.028-10.027zM60.42 35.361h145.269v312.855H60.42V35.361z" id="svg_3" class="" fill-opacity="1" fill="#388e3c"/></g></svg>