<svg xmlns="http://www.w3.org/2000/svg" width="612" height="612"><rect id="backgroundrect" width="100%" height="100%" x="0" y="0" fill="none" stroke="none"/><g class="currentLayer" style=""><title>Layer 1</title><path d="M21.474 377.522V117.138c0-14.469 11.729-26.199 26.199-26.199h260.25c14.469 0 26.198 11.73 26.198 26.199v260.385a8.732 8.732 0 0 1-8.733 8.733H30.207a8.733 8.733 0 0 1-8.733-8.734zm210.16 89.202c0 30.01-24.329 54.338-54.338 54.338s-54.338-24.328-54.338-54.338c0-30.011 24.329-54.338 54.338-54.338s54.338 24.327 54.338 54.338zm-27.17 0c0-15.005-12.164-27.169-27.169-27.169s-27.17 12.164-27.17 27.169 12.165 27.17 27.17 27.17 27.169-12.165 27.169-27.17zm-73.969-54.339H8.733A8.733 8.733 0 0 0 0 421.118v26.495a8.733 8.733 0 0 0 8.733 8.733h97.598c2.548-17.484 11.373-32.928 24.164-43.961zm385.443 54.339c0 30.01-24.329 54.338-54.338 54.338-30.01 0-54.338-24.328-54.338-54.338 0-30.011 24.328-54.338 54.338-54.338 30.009-.001 54.338 24.327 54.338 54.338zm-27.168 0c0-15.005-12.165-27.169-27.17-27.169-15.006 0-27.169 12.164-27.169 27.169s12.164 27.17 27.169 27.17 27.17-12.165 27.17-27.17zM612 421.118v26.495a8.733 8.733 0 0 1-8.733 8.733h-70.704c-5.057-34.683-34.906-61.427-70.961-61.427-36.062 0-65.912 26.745-70.969 61.427H248.261c-2.549-17.483-11.373-32.928-24.164-43.961h134.994V162.594c0-9.646 7.82-17.466 17.466-17.466h82.445a69.86 69.86 0 0 1 57.9 30.77l53.15 78.721a69.865 69.865 0 0 1 11.962 39.094v118.672h21.253a8.733 8.733 0 0 1 8.733 8.733zm-88.592-164.483l-42.501-60.393a8.734 8.734 0 0 0-7.142-3.707H407.47a8.734 8.734 0 0 0-8.733 8.733v60.393a8.732 8.732 0 0 0 8.733 8.733h108.798c7.074 0 11.212-7.973 7.14-13.759z" id="svg_1" class="selected" fill="#388e3c" fill-opacity="1"/></g></svg>