<svg xmlns="http://www.w3.org/2000/svg" width="297" height="297"><rect id="backgroundrect" width="100%" height="100%" x="0" y="0" fill="none" stroke="none"/><g class="currentLayer" style=""><title>Layer 1</title><path d="M261.489 66.973L197.412 2.895A9.884 9.884 0 0 0 190.423 0H42.499c-5.458 0-9.884 4.426-9.884 9.883v277.233c0 5.458 4.426 9.884 9.884 9.884h212.002c5.458 0 9.884-4.426 9.884-9.884V73.961a9.88 9.88 0 0 0-2.896-6.988zm-61.182-33.228l30.333 30.333h-30.333V33.745zM52.383 277.232V19.767h128.156v54.194c0 5.459 4.426 9.884 9.884 9.884h54.194v193.388H52.383z" id="svg_1" class="" fill-opacity="1" fill="#388e3c"/><path d="M149.523,136.11734074449538 a9.884,9.884 0 0 0 -18.355,0 l-32.615,81.539 c-2.027,5.068 0.43800000000000006,10.819 5.506,12.848 c5.066,2.025 10.819,-0.43900000000000006 12.848,-5.507 l4.037,-10.095 h38.803 l4.037,10.095 a9.89,9.89 0 0 0 9.181,6.216 a9.879,9.879 0 0 0 3.6670000000000003,-0.7090000000000001 c5.068,-2.028 7.534,-7.779 5.507,-12.848 l-32.616,-81.539 zm-20.671,59.017 l11.494,-28.735 l11.495,28.735 h-22.989 zm82.701,-62.265 h-7.952 v-8.002 c0,-5.458 -4.426,-9.883000000000001 -9.884,-9.883000000000001 s-9.883000000000001,4.425 -9.883000000000001,9.883000000000001 v8.002 h-7.952 c-5.459,0 -9.884,4.425 -9.884,9.883000000000001 c0,5.459 4.425,9.884 9.884,9.884 h7.952 v8.002 c0,5.458 4.425,9.884 9.883000000000001,9.884 c5.458,0 9.884,-4.426 9.884,-9.884 v-8.002 h7.952 c5.458,0 9.884,-4.425 9.884,-9.884 c-0.0010000000000000002,-5.459 -4.426,-9.883000000000001 -9.884,-9.883000000000001 z" id="svg_2" class="" fill-opacity="1" fill="#388e3c"/></g></svg>