<svg xmlns="http://www.w3.org/2000/svg" width="468.0150146484375" height="468.0140075683594"><rect id="backgroundrect" width="100%" height="100%" x="0" y="0" fill="none" stroke="none"/><g class="currentLayer" style=""><title>Layer 1</title><path d="M468.015 218.63l-45.785-98.58-.662.304v-1.912l-.42.169.272-.686-178.05-72.521-192.939 73.287-.618-.243v.112L0 191.861l49.813-4.395v164.162l179.238 70.705v.277h13.272v-.277l179.232-70.705V238.591l46.46-19.961zm-224.373-30.003l-.012-128.78 160.631 65.441-160.619 63.339zm-14.585 219.426L63.094 342.597V137.955l165.962 65.465v204.633zm179.235-65.456l-165.963 65.45V203.428l36.481 96.528 129.481-55.655v98.296z" id="svg_1" class="selected" fill-opacity="1" fill="#388e3c"/></g></svg>