<svg xmlns="http://www.w3.org/2000/svg" width="97.58899688720703" height="97.58899688720703"><rect id="backgroundrect" width="100%" height="100%" x="0" y="0" fill="none" stroke="none"/><g class="currentLayer" style=""><title>Layer 1</title><path d="M66.287 15.789a1.996 1.996 0 0 0 1.489-.475l5.481-4.705-.032 28.367a2.003 2.003 0 0 0 2 2.002h5.229a2 2 0 0 0 2-2V2.17a2 2 0 0 0-2-2h-4.892c-.453 0-.893.154-1.246.436L63.079 9.553a2.001 2.001 0 0 0-.314 2.817l2.146 2.68c.34.421.836.688 1.376.739zm24.397 48.354c-1.218-2.703-2.99-4.797-5.27-6.223-2.275-1.424-4.962-2.145-7.982-2.145-4.296 0-7.746 1.301-10.257 3.867-2.506 2.562-3.775 6.084-3.775 10.465 0 4.063 1.051 7.297 3.123 9.604 2.086 2.322 4.968 3.5 8.566 3.5 2.141 0 3.956-.365 5.399-1.086 1.161-.584 2.225-1.515 3.161-2.767-.219 2.402-.729 4.354-1.51 5.795-.905 1.664-2.229 2.9-3.934 3.679-1.746.793-4.013 1.194-6.738 1.194-1.018 0-2.023-.075-2.989-.223a2.017 2.017 0 0 0-1.605.459 2.01 2.01 0 0 0-.697 1.518v3.638c0 1.021.769 1.877 1.782 1.987 1.101.121 2.475.183 4.082.183 6.82 0 11.996-2.01 15.384-5.974 3.367-3.944 5.074-9.963 5.074-17.889-.001-3.684-.612-6.909-1.814-9.582zm-9.211 10.076c-1.129 1.039-2.45 1.543-4.042 1.543-1.671 0-2.869-.49-3.667-1.502-.813-1.025-1.226-2.459-1.226-4.262 0-2.121.457-3.756 1.358-4.857.887-1.084 2.096-1.611 3.695-1.611 1.609 0 2.9.664 3.943 2.031 1.063 1.396 1.601 3.137 1.601 5.174.004 1.318-.541 2.458-1.662 3.484zm-38.23-8.623h-8.011V2a2 2 0 0 0-2-2h-16.13a2 2 0 0 0-2 2v63.596H7.091a2 2 0 0 0-1.558 3.254l18.076 26.955a1.997 1.997 0 0 0 3.116 0L44.801 68.85a2.001 2.001 0 0 0-1.558-3.254z" id="svg_1" class="selected" fill-opacity="1" fill="#388e3c"/></g></svg>