<svg xmlns="http://www.w3.org/2000/svg" width="45.599998474121094" height="45.599998474121094" style=""><rect id="backgroundrect" width="100%" height="100%" x="0" y="0" fill="none" stroke="none"/><g class="currentLayer" style=""><title>Layer 1</title><circle cx="31.958999633789062" cy="4.52400016784668" r="4.52400016784668" id="svg_1" class="" fill-opacity="1" fill="#388e3c"/><path d="M41.956 25.452l-4.217-13.583c-.46-1.484-1.929-2.496-3.462-2.242-1.236.205-1.839 1.074-2.375 2.072-.208.388-5.188 12.647-5.188 12.647a2.522 2.522 0 0 0 .001 1.918l-1.687 1.23-.673-1.547a1.279 1.279 0 0 0-1.458-.733L4.503 29.457c-1.071.247-1.35 1.643-.457 2.281l5.175 3.705a5.582 5.582 0 0 0 3.479 1.039l-.827.619v-.016l-.074.055a4.523 4.523 0 1 0-2.928 7.97 4.523 4.523 0 0 0 4.143-6.343l5.071-3.752 5.134 7.135a1.009 1.009 0 0 0 1.826-.512l.972-12.382 2.173-1.577a2.526 2.526 0 0 0 3.195-1.416l2.537-6.198 2.069 6.687v15.685c0 1.467.991 2.816 2.431 3.102 1.94.383 3.665-1.094 3.665-2.971V26.293c0-.285-.047-.568-.131-.841zM11 40.578a2.128 2.128 0 1 1-1.211-1.92L8.232 39.82a.992.992 0 0 0-.207 1.387l.012.016a.991.991 0 0 0 1.381.209l1.56-1.156c.015.097.022.199.022.302zm12.249-1.849l-3.528-4.901 4.148-3.013-.62 7.914z" id="svg_2" class="" fill="#388e3c" fill-opacity="1"/></g></svg>